<?xml version="1.0" encoding="UTF-8" standalone="no"?>
<!DOCTYPE svg PUBLIC "-//W3C//DTD SVG 1.1//EN"
 "http://www.w3.org/Graphics/SVG/1.1/DTD/svg11.dtd">
<!-- Generated by graphviz version 2.43.0 (0)
 -->
<!-- Title: src/cpp/bindings.cpp Pages: 1 -->
<svg width="468pt" height="137pt"
 viewBox="0.00 0.00 467.50 137.00" xmlns="http://www.w3.org/2000/svg" xmlns:xlink="http://www.w3.org/1999/xlink">
<g id="graph0" class="graph" transform="scale(1 1) rotate(0) translate(4 133)">
<title>src/cpp/bindings.cpp</title>
<!-- Node1 -->
<g id="Node000001" class="node">
<title>Node1</title>
<g id="a_Node000001"><a xlink:title="Emscripten bindings for the AGA8 gas calculation library.">
<polygon fill="#999999" stroke="#666666" points="324,-129 208,-129 208,-110 324,-110 324,-129"/>
<text text-anchor="middle" x="266" y="-117" font-family="Helvetica,sans-Serif" font-size="10.00">src/cpp/bindings.cpp</text>
</a>
</g>
</g>
<!-- Node2 -->
<g id="Node000002" class="node">
<title>Node2</title>
<g id="a_Node000002"><a xlink:title=" ">
<polygon fill="#e0e0e0" stroke="#999999" points="104,-74 0,-74 0,-55 104,-55 104,-74"/>
<text text-anchor="middle" x="52" y="-62" font-family="Helvetica,sans-Serif" font-size="10.00">emscripten/bind.h</text>
</a>
</g>
</g>
<!-- Node1&#45;&gt;Node2 -->
<g id="edge1_Node000001_Node000002" class="edge">
<title>Node1&#45;&gt;Node2</title>
<g id="a_edge1_Node000001_Node000002"><a xlink:title=" ">
<path fill="none" stroke="#63b8ff" d="M231.62,-109.98C194.91,-100.89 136.62,-86.46 96.45,-76.51"/>
<polygon fill="#63b8ff" stroke="#63b8ff" points="97.2,-73.09 86.65,-74.08 95.52,-79.88 97.2,-73.09"/>
</a>
</g>
</g>
<!-- Node3 -->
<g id="Node000003" class="node">
<title>Node3</title>
<g id="a_Node000003"><a xlink:title=" ">
<polygon fill="#e0e0e0" stroke="#999999" points="220,-74 122,-74 122,-55 220,-55 220,-74"/>
<text text-anchor="middle" x="171" y="-62" font-family="Helvetica,sans-Serif" font-size="10.00">emscripten/val.h</text>
</a>
</g>
</g>
<!-- Node1&#45;&gt;Node3 -->
<g id="edge2_Node000001_Node000003" class="edge">
<title>Node1&#45;&gt;Node3</title>
<g id="a_edge2_Node000001_Node000003"><a xlink:title=" ">
<path fill="none" stroke="#63b8ff" d="M250.74,-109.98C235.87,-101.69 213.02,-88.94 195.58,-79.22"/>
<polygon fill="#63b8ff" stroke="#63b8ff" points="196.98,-75.99 186.54,-74.17 193.57,-82.1 196.98,-75.99"/>
</a>
</g>
</g>
<!-- Node4 -->
<g id="Node000004" class="node">
<title>Node4</title>
<g id="a_Node000004"><a xlink:href="Detail_8h.html" target="_top" xlink:title=" ">
<polygon fill="white" stroke="#666666" points="293.5,-74 238.5,-74 238.5,-55 293.5,-55 293.5,-74"/>
<text text-anchor="middle" x="266" y="-62" font-family="Helvetica,sans-Serif" font-size="10.00">Detail.h</text>
</a>
</g>
</g>
<!-- Node1&#45;&gt;Node4 -->
<g id="edge3_Node000001_Node000004" class="edge">
<title>Node1&#45;&gt;Node4</title>
<g id="a_edge3_Node000001_Node000004"><a xlink:title=" ">
<path fill="none" stroke="#63b8ff" d="M266,-109.75C266,-102.8 266,-92.85 266,-84.13"/>
<polygon fill="#63b8ff" stroke="#63b8ff" points="269.5,-84.09 266,-74.09 262.5,-84.09 269.5,-84.09"/>
</a>
</g>
</g>
<!-- Node7 -->
<g id="Node000007" class="node">
<title>Node7</title>
<g id="a_Node000007"><a xlink:href="GERG2008_8h.html" target="_top" xlink:title=" ">
<polygon fill="white" stroke="#666666" points="388.5,-74 311.5,-74 311.5,-55 388.5,-55 388.5,-74"/>
<text text-anchor="middle" x="350" y="-62" font-family="Helvetica,sans-Serif" font-size="10.00">GERG2008.h</text>
</a>
</g>
</g>
<!-- Node1&#45;&gt;Node7 -->
<g id="edge6_Node000001_Node000007" class="edge">
<title>Node1&#45;&gt;Node7</title>
<g id="a_edge6_Node000001_Node000007"><a xlink:title=" ">
<path fill="none" stroke="#63b8ff" d="M279.5,-109.98C292.4,-101.84 312.1,-89.41 327.4,-79.76"/>
<polygon fill="#63b8ff" stroke="#63b8ff" points="329.67,-82.47 336.26,-74.17 325.93,-76.55 329.67,-82.47"/>
</a>
</g>
</g>
<!-- Node8 -->
<g id="Node000008" class="node">
<title>Node8</title>
<g id="a_Node000008"><a xlink:href="Gross_8h.html" target="_top" xlink:title=" ">
<polygon fill="white" stroke="#666666" points="459.5,-74 406.5,-74 406.5,-55 459.5,-55 459.5,-74"/>
<text text-anchor="middle" x="433" y="-62" font-family="Helvetica,sans-Serif" font-size="10.00">Gross.h</text>
</a>
</g>
</g>
<!-- Node1&#45;&gt;Node8 -->
<g id="edge9_Node000001_Node000008" class="edge">
<title>Node1&#45;&gt;Node8</title>
<g id="a_edge9_Node000001_Node000008"><a xlink:title=" ">
<path fill="none" stroke="#63b8ff" d="M292.83,-109.98C320.95,-101.06 365.31,-86.98 396.58,-77.06"/>
<polygon fill="#63b8ff" stroke="#63b8ff" points="397.76,-80.36 406.24,-73.99 395.64,-73.68 397.76,-80.36"/>
</a>
</g>
</g>
<!-- Node5 -->
<g id="Node000005" class="node">
<title>Node5</title>
<g id="a_Node000005"><a xlink:title=" ">
<polygon fill="#e0e0e0" stroke="#999999" points="341.5,-19 294.5,-19 294.5,0 341.5,0 341.5,-19"/>
<text text-anchor="middle" x="318" y="-7" font-family="Helvetica,sans-Serif" font-size="10.00">vector</text>
</a>
</g>
</g>
<!-- Node4&#45;&gt;Node5 -->
<g id="edge4_Node000004_Node000005" class="edge">
<title>Node4&#45;&gt;Node5</title>
<g id="a_edge4_Node000004_Node000005"><a xlink:title=" ">
<path fill="none" stroke="#63b8ff" d="M274.59,-54.75C282.16,-47.03 293.38,-35.6 302.51,-26.28"/>
<polygon fill="#63b8ff" stroke="#63b8ff" points="305.07,-28.68 309.57,-19.09 300.07,-23.78 305.07,-28.68"/>
</a>
</g>
</g>
<!-- Node6 -->
<g id="Node000006" class="node">
<title>Node6</title>
<g id="a_Node000006"><a xlink:title=" ">
<polygon fill="#e0e0e0" stroke="#999999" points="404,-19 360,-19 360,0 404,0 404,-19"/>
<text text-anchor="middle" x="382" y="-7" font-family="Helvetica,sans-Serif" font-size="10.00">string</text>
</a>
</g>
</g>
<!-- Node4&#45;&gt;Node6 -->
<g id="edge5_Node000004_Node000006" class="edge">
<title>Node4&#45;&gt;Node6</title>
<g id="a_edge5_Node000004_Node000006"><a xlink:title=" ">
<path fill="none" stroke="#63b8ff" d="M284.64,-54.98C303.3,-46.46 332.25,-33.23 353.74,-23.41"/>
<polygon fill="#63b8ff" stroke="#63b8ff" points="355.38,-26.51 363.02,-19.17 352.47,-20.14 355.38,-26.51"/>
</a>
</g>
</g>
<!-- Node7&#45;&gt;Node5 -->
<g id="edge7_Node000007_Node000005" class="edge">
<title>Node7&#45;&gt;Node5</title>
<g id="a_edge7_Node000007_Node000005"><a xlink:title=" ">
<path fill="none" stroke="#63b8ff" d="M344.72,-54.75C340.29,-47.42 333.84,-36.73 328.38,-27.7"/>
<polygon fill="#63b8ff" stroke="#63b8ff" points="331.35,-25.84 323.19,-19.09 325.36,-29.46 331.35,-25.84"/>
</a>
</g>
</g>
<!-- Node7&#45;&gt;Node6 -->
<g id="edge8_Node000007_Node000006" class="edge">
<title>Node7&#45;&gt;Node6</title>
<g id="a_edge8_Node000007_Node000006"><a xlink:title=" ">
<path fill="none" stroke="#63b8ff" d="M355.28,-54.75C359.71,-47.42 366.16,-36.73 371.62,-27.7"/>
<polygon fill="#63b8ff" stroke="#63b8ff" points="374.64,-29.46 376.81,-19.09 368.65,-25.84 374.64,-29.46"/>
</a>
</g>
</g>
<!-- Node8&#45;&gt;Node5 -->
<g id="edge10_Node000008_Node000005" class="edge">
<title>Node8&#45;&gt;Node5</title>
<g id="a_edge10_Node000008_Node000005"><a xlink:title=" ">
<path fill="none" stroke="#63b8ff" d="M414.52,-54.98C396.02,-46.46 367.32,-33.23 346.02,-23.41"/>
<polygon fill="#63b8ff" stroke="#63b8ff" points="347.36,-20.18 336.81,-19.17 344.43,-26.53 347.36,-20.18"/>
</a>
</g>
</g>
<!-- Node8&#45;&gt;Node6 -->
<g id="edge11_Node000008_Node000006" class="edge">
<title>Node8&#45;&gt;Node6</title>
<g id="a_edge11_Node000008_Node000006"><a xlink:title=" ">
<path fill="none" stroke="#63b8ff" d="M424.58,-54.75C417.23,-47.11 406.37,-35.82 397.46,-26.56"/>
<polygon fill="#63b8ff" stroke="#63b8ff" points="399.72,-23.87 390.26,-19.09 394.68,-28.72 399.72,-23.87"/>
</a>
</g>
</g>
</g>
</svg>
