<?xml version="1.0" encoding="UTF-8" standalone="no"?>
<!DOCTYPE svg PUBLIC "-//W3C//DTD SVG 1.1//EN"
 "http://www.w3.org/Graphics/SVG/1.1/DTD/svg11.dtd">
<!-- Generated by graphviz version 2.43.0 (0)
 -->
<!-- Title: src/cpp/Detail.h Pages: 1 -->
<svg width="246pt" height="82pt"
 viewBox="0.00 0.00 246.00 82.00" xmlns="http://www.w3.org/2000/svg" xmlns:xlink="http://www.w3.org/1999/xlink">
<g id="graph0" class="graph" transform="scale(1 1) rotate(0) translate(4 78)">
<title>src/cpp/Detail.h</title>
<!-- Node1 -->
<g id="Node000001" class="node">
<title>Node1</title>
<g id="a_Node000001"><a xlink:title=" ">
<polygon fill="#999999" stroke="#666666" points="162,-74 70,-74 70,-55 162,-55 162,-74"/>
<text text-anchor="middle" x="116" y="-62" font-family="Helvetica,sans-Serif" font-size="10.00">src/cpp/Detail.h</text>
</a>
</g>
</g>
<!-- Node2 -->
<g id="Node000002" class="node">
<title>Node2</title>
<g id="a_Node000002"><a xlink:href="Detail_8cpp.html" target="_top" xlink:title="Implementation of the AGA 8 Part 1 DETAIL equation of state for natural gas mixtures.">
<polygon fill="white" stroke="#666666" points="104,-19 0,-19 0,0 104,0 104,-19"/>
<text text-anchor="middle" x="52" y="-7" font-family="Helvetica,sans-Serif" font-size="10.00">src/cpp/Detail.cpp</text>
</a>
</g>
</g>
<!-- Node1&#45;&gt;Node2 -->
<g id="edge1_Node000001_Node000002" class="edge">
<title>Node1&#45;&gt;Node2</title>
<g id="a_edge1_Node000001_Node000002"><a xlink:title=" ">
<path fill="none" stroke="#63b8ff" d="M98.01,-48.6C86.54,-39.11 72.09,-27.13 62.47,-19.17"/>
<polygon fill="#63b8ff" stroke="#63b8ff" points="95.78,-51.3 105.72,-54.98 100.25,-45.91 95.78,-51.3"/>
</a>
</g>
</g>
<!-- Node3 -->
<g id="Node000003" class="node">
<title>Node3</title>
<g id="a_Node000003"><a xlink:href="bindings_8cpp.html" target="_top" xlink:title="Emscripten bindings for the AGA8 gas calculation library.">
<polygon fill="white" stroke="#666666" points="238,-19 122,-19 122,0 238,0 238,-19"/>
<text text-anchor="middle" x="180" y="-7" font-family="Helvetica,sans-Serif" font-size="10.00">src/cpp/bindings.cpp</text>
</a>
</g>
</g>
<!-- Node1&#45;&gt;Node3 -->
<g id="edge2_Node000001_Node000003" class="edge">
<title>Node1&#45;&gt;Node3</title>
<g id="a_edge2_Node000001_Node000003"><a xlink:title=" ">
<path fill="none" stroke="#63b8ff" d="M133.99,-48.6C145.46,-39.11 159.91,-27.13 169.53,-19.17"/>
<polygon fill="#63b8ff" stroke="#63b8ff" points="131.75,-45.91 126.28,-54.98 136.22,-51.3 131.75,-45.91"/>
</a>
</g>
</g>
</g>
</svg>
