<?xml version="1.0" encoding="UTF-8" standalone="no"?>
<!DOCTYPE svg PUBLIC "-//W3C//DTD SVG 1.1//EN"
 "http://www.w3.org/Graphics/SVG/1.1/DTD/svg11.dtd">
<!-- Generated by graphviz version 2.43.0 (0)
 -->
<!-- Title: GrossMethod2Result Pages: 1 -->
<svg width="120pt" height="258pt"
 viewBox="0.00 0.00 120.00 258.00" xmlns="http://www.w3.org/2000/svg" xmlns:xlink="http://www.w3.org/1999/xlink">
<g id="graph0" class="graph" transform="scale(1 1) rotate(0) translate(4 254)">
<title>GrossMethod2Result</title>
<!-- Node1 -->
<g id="Node000001" class="node">
<title>Node1</title>
<g id="a_Node000001"><a xlink:title=" ">
<polygon fill="#999999" stroke="transparent" points="112,-124 0,-124 0,0 112,0 112,-124"/>
<text text-anchor="start" x="5" y="-112" font-family="Helvetica,sans-Serif" font-size="10.00">GrossMethod2Result</text>
<text text-anchor="start" x="21" y="-97" font-family="Helvetica,sans-Serif" font-size="10.00">+</text>
<text text-anchor="start" x="51" y="-97" font-family="Helvetica,sans-Serif" font-size="10.00">Hv</text>
<text text-anchor="start" x="21" y="-82" font-family="Helvetica,sans-Serif" font-size="10.00">+</text>
<text text-anchor="start" x="51" y="-82" font-family="Helvetica,sans-Serif" font-size="10.00">Mm</text>
<text text-anchor="start" x="21" y="-67" font-family="Helvetica,sans-Serif" font-size="10.00">+</text>
<text text-anchor="start" x="51" y="-67" font-family="Helvetica,sans-Serif" font-size="10.00">HCH</text>
<text text-anchor="start" x="21" y="-52" font-family="Helvetica,sans-Serif" font-size="10.00">+</text>
<text text-anchor="start" x="51" y="-52" font-family="Helvetica,sans-Serif" font-size="10.00">HN</text>
<text text-anchor="start" x="21" y="-37" font-family="Helvetica,sans-Serif" font-size="10.00">+</text>
<text text-anchor="start" x="51" y="-37" font-family="Helvetica,sans-Serif" font-size="10.00">ierr</text>
<text text-anchor="start" x="21" y="-22" font-family="Helvetica,sans-Serif" font-size="10.00">+</text>
<text text-anchor="start" x="51" y="-22" font-family="Helvetica,sans-Serif" font-size="10.00">herr</text>
<text text-anchor="start" x="54" y="-7" font-family="Helvetica,sans-Serif" font-size="10.00"> </text>
<polygon fill="#666666" stroke="#666666" points="0,-107 0,-107 112,-107 112,-107 0,-107"/>
<polygon fill="#666666" stroke="#666666" points="0,-17 0,-17 49,-17 49,-17 0,-17"/>
<polygon fill="#666666" stroke="#666666" points="49,-17 49,-17 112,-17 112,-17 49,-17"/>
<polygon fill="none" stroke="#666666" points="0,0 0,-124 112,-124 112,0 0,0"/>
</a>
</g>
</g>
<!-- Node2 -->
<g id="Node000002" class="node">
<title>Node2</title>
<g id="a_Node000002"><a xlink:href="structxGrs.html" target="_top" xlink:title=" ">
<polygon fill="white" stroke="transparent" points="104,-250 8,-250 8,-171 104,-171 104,-250"/>
<text text-anchor="start" x="44.5" y="-237.5" font-family="Helvetica,sans-Serif" font-size="10.00">xGrs</text>
<text text-anchor="start" x="12" y="-222.5" font-family="Helvetica,sans-Serif" font-size="10.00">+</text>
<text text-anchor="start" x="25" y="-222.5" font-family="Helvetica,sans-Serif" font-size="10.00">hydrocarbon</text>
<text text-anchor="start" x="12" y="-207.5" font-family="Helvetica,sans-Serif" font-size="10.00">+</text>
<text text-anchor="start" x="25" y="-207.5" font-family="Helvetica,sans-Serif" font-size="10.00">nitrogen</text>
<text text-anchor="start" x="12" y="-192.5" font-family="Helvetica,sans-Serif" font-size="10.00">+</text>
<text text-anchor="start" x="25" y="-192.5" font-family="Helvetica,sans-Serif" font-size="10.00">carbon_dioxide</text>
<text text-anchor="start" x="54" y="-177.5" font-family="Helvetica,sans-Serif" font-size="10.00"> </text>
<polygon fill="#666666" stroke="#666666" points="8,-232.5 8,-232.5 104,-232.5 104,-232.5 8,-232.5"/>
<polygon fill="#666666" stroke="#666666" points="8,-187.5 8,-187.5 23,-187.5 23,-187.5 8,-187.5"/>
<polygon fill="#666666" stroke="#666666" points="23,-187.5 23,-187.5 104,-187.5 104,-187.5 23,-187.5"/>
<polygon fill="none" stroke="#666666" points="8,-171 8,-250 104,-250 104,-171 8,-171"/>
</a>
</g>
</g>
<!-- Node2&#45;&gt;Node1 -->
<g id="edge1_Node000001_Node000002" class="edge">
<title>Node2&#45;&gt;Node1</title>
<g id="a_edge1_Node000001_Node000002"><a xlink:title=" ">
<path fill="none" stroke="#63b8ff" d="M56,-170.63C56,-160.06 56,-148.25 56,-136.44"/>
<polygon fill="none" stroke="#63b8ff" points="56,-136.18 52,-130.18 56,-124.18 60,-130.18 56,-136.18"/>
</a>
</g>
<text text-anchor="middle" x="73" y="-145" font-family="Helvetica,sans-Serif" font-size="10.00" fill="grey"> +xGrs</text>
</g>
</g>
</svg>
