<?xml version="1.0" encoding="UTF-8" standalone="no"?>
<!DOCTYPE svg PUBLIC "-//W3C//DTD SVG 1.1//EN"
 "http://www.w3.org/Graphics/SVG/1.1/DTD/svg11.dtd">
<!-- Generated by graphviz version 2.43.0 (0)
 -->
<!-- Title: GrossInputsResult Pages: 1 -->
<svg width="107pt" height="243pt"
 viewBox="0.00 0.00 107.00 243.00" xmlns="http://www.w3.org/2000/svg" xmlns:xlink="http://www.w3.org/1999/xlink">
<g id="graph0" class="graph" transform="scale(1 1) rotate(0) translate(4 239)">
<title>GrossInputsResult</title>
<!-- Node1 -->
<g id="Node000001" class="node">
<title>Node1</title>
<g id="a_Node000001"><a xlink:title=" ">
<polygon fill="#999999" stroke="transparent" points="99,-109 0,-109 0,0 99,0 99,-109"/>
<text text-anchor="start" x="5.5" y="-96.5" font-family="Helvetica,sans-Serif" font-size="10.00">GrossInputsResult</text>
<text text-anchor="start" x="18.5" y="-81.5" font-family="Helvetica,sans-Serif" font-size="10.00">+</text>
<text text-anchor="start" x="45.5" y="-81.5" font-family="Helvetica,sans-Serif" font-size="10.00">Gr</text>
<text text-anchor="start" x="18.5" y="-66.5" font-family="Helvetica,sans-Serif" font-size="10.00">+</text>
<text text-anchor="start" x="45.5" y="-66.5" font-family="Helvetica,sans-Serif" font-size="10.00">HN</text>
<text text-anchor="start" x="18.5" y="-51.5" font-family="Helvetica,sans-Serif" font-size="10.00">+</text>
<text text-anchor="start" x="45.5" y="-51.5" font-family="Helvetica,sans-Serif" font-size="10.00">HCH</text>
<text text-anchor="start" x="18.5" y="-36.5" font-family="Helvetica,sans-Serif" font-size="10.00">+</text>
<text text-anchor="start" x="45.5" y="-36.5" font-family="Helvetica,sans-Serif" font-size="10.00">ierr</text>
<text text-anchor="start" x="18.5" y="-21.5" font-family="Helvetica,sans-Serif" font-size="10.00">+</text>
<text text-anchor="start" x="45.5" y="-21.5" font-family="Helvetica,sans-Serif" font-size="10.00">herr</text>
<text text-anchor="start" x="48" y="-6.5" font-family="Helvetica,sans-Serif" font-size="10.00"> </text>
<polygon fill="#666666" stroke="#666666" points="0.5,-91.5 0.5,-91.5 99.5,-91.5 99.5,-91.5 0.5,-91.5"/>
<polygon fill="#666666" stroke="#666666" points="0.5,-16.5 0.5,-16.5 43.5,-16.5 43.5,-16.5 0.5,-16.5"/>
<polygon fill="#666666" stroke="#666666" points="43.5,-16.5 43.5,-16.5 99.5,-16.5 99.5,-16.5 43.5,-16.5"/>
<polygon fill="none" stroke="#666666" points="0,0 0,-109 99,-109 99,0 0,0"/>
</a>
</g>
</g>
<!-- Node2 -->
<g id="Node000002" class="node">
<title>Node2</title>
<g id="a_Node000002"><a xlink:href="structxGrs.html" target="_top" xlink:title=" ">
<polygon fill="white" stroke="transparent" points="97.5,-235 1.5,-235 1.5,-156 97.5,-156 97.5,-235"/>
<text text-anchor="start" x="38" y="-222.5" font-family="Helvetica,sans-Serif" font-size="10.00">xGrs</text>
<text text-anchor="start" x="5.5" y="-207.5" font-family="Helvetica,sans-Serif" font-size="10.00">+</text>
<text text-anchor="start" x="18.5" y="-207.5" font-family="Helvetica,sans-Serif" font-size="10.00">hydrocarbon</text>
<text text-anchor="start" x="5.5" y="-192.5" font-family="Helvetica,sans-Serif" font-size="10.00">+</text>
<text text-anchor="start" x="18.5" y="-192.5" font-family="Helvetica,sans-Serif" font-size="10.00">nitrogen</text>
<text text-anchor="start" x="5.5" y="-177.5" font-family="Helvetica,sans-Serif" font-size="10.00">+</text>
<text text-anchor="start" x="18.5" y="-177.5" font-family="Helvetica,sans-Serif" font-size="10.00">carbon_dioxide</text>
<text text-anchor="start" x="47.5" y="-162.5" font-family="Helvetica,sans-Serif" font-size="10.00"> </text>
<polygon fill="#666666" stroke="#666666" points="1.5,-217.5 1.5,-217.5 97.5,-217.5 97.5,-217.5 1.5,-217.5"/>
<polygon fill="#666666" stroke="#666666" points="1.5,-172.5 1.5,-172.5 16.5,-172.5 16.5,-172.5 1.5,-172.5"/>
<polygon fill="#666666" stroke="#666666" points="16.5,-172.5 16.5,-172.5 97.5,-172.5 97.5,-172.5 16.5,-172.5"/>
<polygon fill="none" stroke="#666666" points="1.5,-156 1.5,-235 97.5,-235 97.5,-156 1.5,-156"/>
</a>
</g>
</g>
<!-- Node2&#45;&gt;Node1 -->
<g id="edge1_Node000001_Node000002" class="edge">
<title>Node2&#45;&gt;Node1</title>
<g id="a_edge1_Node000001_Node000002"><a xlink:title=" ">
<path fill="none" stroke="#63b8ff" d="M49.5,-155.78C49.5,-145.05 49.5,-133.09 49.5,-121.28"/>
<polygon fill="none" stroke="#63b8ff" points="49.5,-121.07 45.5,-115.07 49.5,-109.07 53.5,-115.07 49.5,-121.07"/>
</a>
</g>
<text text-anchor="middle" x="66.5" y="-130" font-family="Helvetica,sans-Serif" font-size="10.00" fill="grey"> +xGrs</text>
</g>
</g>
</svg>
