<?xml version="1.0" encoding="UTF-8" standalone="no"?>
<!DOCTYPE svg PUBLIC "-//W3C//DTD SVG 1.1//EN"
 "http://www.w3.org/Graphics/SVG/1.1/DTD/svg11.dtd">
<!-- Generated by graphviz version 2.43.0 (0)
 -->
<!-- Title: GrossHvResult Pages: 1 -->
<svg width="104pt" height="198pt"
 viewBox="0.00 0.00 104.00 198.00" xmlns="http://www.w3.org/2000/svg" xmlns:xlink="http://www.w3.org/1999/xlink">
<g id="graph0" class="graph" transform="scale(1 1) rotate(0) translate(4 194)">
<title>GrossHvResult</title>
<!-- Node1 -->
<g id="Node000001" class="node">
<title>Node1</title>
<g id="a_Node000001"><a xlink:title=" ">
<polygon fill="#999999" stroke="transparent" points="89.5,-64 6.5,-64 6.5,0 89.5,0 89.5,-64"/>
<text text-anchor="start" x="12" y="-52" font-family="Helvetica,sans-Serif" font-size="10.00">GrossHvResult</text>
<text text-anchor="start" x="21" y="-37" font-family="Helvetica,sans-Serif" font-size="10.00">+</text>
<text text-anchor="start" x="44" y="-37" font-family="Helvetica,sans-Serif" font-size="10.00">HN</text>
<text text-anchor="start" x="21" y="-22" font-family="Helvetica,sans-Serif" font-size="10.00">+</text>
<text text-anchor="start" x="44" y="-22" font-family="Helvetica,sans-Serif" font-size="10.00">HCH</text>
<text text-anchor="start" x="46.5" y="-7" font-family="Helvetica,sans-Serif" font-size="10.00"> </text>
<polygon fill="#666666" stroke="#666666" points="7,-47 7,-47 90,-47 90,-47 7,-47"/>
<polygon fill="#666666" stroke="#666666" points="7,-17 7,-17 42,-17 42,-17 7,-17"/>
<polygon fill="#666666" stroke="#666666" points="42,-17 42,-17 90,-17 90,-17 42,-17"/>
<polygon fill="none" stroke="#666666" points="6.5,0 6.5,-64 89.5,-64 89.5,0 6.5,0"/>
</a>
</g>
</g>
<!-- Node2 -->
<g id="Node000002" class="node">
<title>Node2</title>
<g id="a_Node000002"><a xlink:href="structxGrs.html" target="_top" xlink:title=" ">
<polygon fill="white" stroke="transparent" points="96,-190 0,-190 0,-111 96,-111 96,-190"/>
<text text-anchor="start" x="36.5" y="-177.5" font-family="Helvetica,sans-Serif" font-size="10.00">xGrs</text>
<text text-anchor="start" x="4" y="-162.5" font-family="Helvetica,sans-Serif" font-size="10.00">+</text>
<text text-anchor="start" x="17" y="-162.5" font-family="Helvetica,sans-Serif" font-size="10.00">hydrocarbon</text>
<text text-anchor="start" x="4" y="-147.5" font-family="Helvetica,sans-Serif" font-size="10.00">+</text>
<text text-anchor="start" x="17" y="-147.5" font-family="Helvetica,sans-Serif" font-size="10.00">nitrogen</text>
<text text-anchor="start" x="4" y="-132.5" font-family="Helvetica,sans-Serif" font-size="10.00">+</text>
<text text-anchor="start" x="17" y="-132.5" font-family="Helvetica,sans-Serif" font-size="10.00">carbon_dioxide</text>
<text text-anchor="start" x="46" y="-117.5" font-family="Helvetica,sans-Serif" font-size="10.00"> </text>
<polygon fill="#666666" stroke="#666666" points="0,-172.5 0,-172.5 96,-172.5 96,-172.5 0,-172.5"/>
<polygon fill="#666666" stroke="#666666" points="0,-127.5 0,-127.5 15,-127.5 15,-127.5 0,-127.5"/>
<polygon fill="#666666" stroke="#666666" points="15,-127.5 15,-127.5 96,-127.5 96,-127.5 15,-127.5"/>
<polygon fill="none" stroke="#666666" points="0,-111 0,-190 96,-190 96,-111 0,-111"/>
</a>
</g>
</g>
<!-- Node2&#45;&gt;Node1 -->
<g id="edge1_Node000001_Node000002" class="edge">
<title>Node2&#45;&gt;Node1</title>
<g id="a_edge1_Node000001_Node000002"><a xlink:title=" ">
<path fill="none" stroke="#63b8ff" d="M48,-110.71C48,-99.74 48,-87.74 48,-76.51"/>
<polygon fill="none" stroke="#63b8ff" points="48,-76.27 44,-70.27 48,-64.27 52,-70.27 48,-76.27"/>
</a>
</g>
<text text-anchor="middle" x="65" y="-85" font-family="Helvetica,sans-Serif" font-size="10.00" fill="grey"> +xGrs</text>
</g>
</g>
</svg>
