<?xml version="1.0" encoding="UTF-8" standalone="no"?>
<!DOCTYPE svg PUBLIC "-//W3C//DTD SVG 1.1//EN"
 "http://www.w3.org/Graphics/SVG/1.1/DTD/svg11.dtd">
<!-- Generated by graphviz version 2.43.0 (0)
 -->
<!-- Title: GrossMethod1Result Pages: 1 -->
<svg width="120pt" height="243pt"
 viewBox="0.00 0.00 120.00 243.00" xmlns="http://www.w3.org/2000/svg" xmlns:xlink="http://www.w3.org/1999/xlink">
<g id="graph0" class="graph" transform="scale(1 1) rotate(0) translate(4 239)">
<title>GrossMethod1Result</title>
<!-- Node1 -->
<g id="Node000001" class="node">
<title>Node1</title>
<g id="a_Node000001"><a xlink:title=" ">
<polygon fill="#999999" stroke="transparent" points="112,-109 0,-109 0,0 112,0 112,-109"/>
<text text-anchor="start" x="5" y="-96.5" font-family="Helvetica,sans-Serif" font-size="10.00">GrossMethod1Result</text>
<text text-anchor="start" x="21" y="-81.5" font-family="Helvetica,sans-Serif" font-size="10.00">+</text>
<text text-anchor="start" x="51" y="-81.5" font-family="Helvetica,sans-Serif" font-size="10.00">Mm</text>
<text text-anchor="start" x="21" y="-66.5" font-family="Helvetica,sans-Serif" font-size="10.00">+</text>
<text text-anchor="start" x="51" y="-66.5" font-family="Helvetica,sans-Serif" font-size="10.00">HCH</text>
<text text-anchor="start" x="21" y="-51.5" font-family="Helvetica,sans-Serif" font-size="10.00">+</text>
<text text-anchor="start" x="51" y="-51.5" font-family="Helvetica,sans-Serif" font-size="10.00">HN</text>
<text text-anchor="start" x="21" y="-36.5" font-family="Helvetica,sans-Serif" font-size="10.00">+</text>
<text text-anchor="start" x="51" y="-36.5" font-family="Helvetica,sans-Serif" font-size="10.00">ierr</text>
<text text-anchor="start" x="21" y="-21.5" font-family="Helvetica,sans-Serif" font-size="10.00">+</text>
<text text-anchor="start" x="51" y="-21.5" font-family="Helvetica,sans-Serif" font-size="10.00">herr</text>
<text text-anchor="start" x="54" y="-6.5" font-family="Helvetica,sans-Serif" font-size="10.00"> </text>
<polygon fill="#666666" stroke="#666666" points="0,-91.5 0,-91.5 112,-91.5 112,-91.5 0,-91.5"/>
<polygon fill="#666666" stroke="#666666" points="0,-16.5 0,-16.5 49,-16.5 49,-16.5 0,-16.5"/>
<polygon fill="#666666" stroke="#666666" points="49,-16.5 49,-16.5 112,-16.5 112,-16.5 49,-16.5"/>
<polygon fill="none" stroke="#666666" points="0,0 0,-109 112,-109 112,0 0,0"/>
</a>
</g>
</g>
<!-- Node2 -->
<g id="Node000002" class="node">
<title>Node2</title>
<g id="a_Node000002"><a xlink:href="structxGrs.html" target="_top" xlink:title=" ">
<polygon fill="white" stroke="transparent" points="104,-235 8,-235 8,-156 104,-156 104,-235"/>
<text text-anchor="start" x="44.5" y="-222.5" font-family="Helvetica,sans-Serif" font-size="10.00">xGrs</text>
<text text-anchor="start" x="12" y="-207.5" font-family="Helvetica,sans-Serif" font-size="10.00">+</text>
<text text-anchor="start" x="25" y="-207.5" font-family="Helvetica,sans-Serif" font-size="10.00">hydrocarbon</text>
<text text-anchor="start" x="12" y="-192.5" font-family="Helvetica,sans-Serif" font-size="10.00">+</text>
<text text-anchor="start" x="25" y="-192.5" font-family="Helvetica,sans-Serif" font-size="10.00">nitrogen</text>
<text text-anchor="start" x="12" y="-177.5" font-family="Helvetica,sans-Serif" font-size="10.00">+</text>
<text text-anchor="start" x="25" y="-177.5" font-family="Helvetica,sans-Serif" font-size="10.00">carbon_dioxide</text>
<text text-anchor="start" x="54" y="-162.5" font-family="Helvetica,sans-Serif" font-size="10.00"> </text>
<polygon fill="#666666" stroke="#666666" points="8,-217.5 8,-217.5 104,-217.5 104,-217.5 8,-217.5"/>
<polygon fill="#666666" stroke="#666666" points="8,-172.5 8,-172.5 23,-172.5 23,-172.5 8,-172.5"/>
<polygon fill="#666666" stroke="#666666" points="23,-172.5 23,-172.5 104,-172.5 104,-172.5 23,-172.5"/>
<polygon fill="none" stroke="#666666" points="8,-156 8,-235 104,-235 104,-156 8,-156"/>
</a>
</g>
</g>
<!-- Node2&#45;&gt;Node1 -->
<g id="edge1_Node000001_Node000002" class="edge">
<title>Node2&#45;&gt;Node1</title>
<g id="a_edge1_Node000001_Node000002"><a xlink:title=" ">
<path fill="none" stroke="#63b8ff" d="M56,-155.78C56,-145.05 56,-133.09 56,-121.28"/>
<polygon fill="none" stroke="#63b8ff" points="56,-121.07 52,-115.07 56,-109.07 60,-115.07 56,-121.07"/>
</a>
</g>
<text text-anchor="middle" x="73" y="-130" font-family="Helvetica,sans-Serif" font-size="10.00" fill="grey"> +xGrs</text>
</g>
</g>
</svg>
