<?xml version="1.0" encoding="UTF-8" standalone="no"?>
<!DOCTYPE svg PUBLIC "-//W3C//DTD SVG 1.1//EN"
 "http://www.w3.org/Graphics/SVG/1.1/DTD/svg11.dtd">
<!-- Generated by graphviz version 2.43.0 (0)
 -->
<!-- Title: GrossMethod2Result Pages: 1 -->
<svg width="120pt" height="147pt"
 viewBox="0.00 0.00 120.00 147.00" xmlns="http://www.w3.org/2000/svg" xmlns:xlink="http://www.w3.org/1999/xlink">
<g id="graph0" class="graph" transform="scale(1 1) rotate(0) translate(4 143)">
<title>GrossMethod2Result</title>
<!-- Node1 -->
<g id="Node000001" class="node">
<title>Node1</title>
<g id="a_Node000001"><a xlink:title=" ">
<polygon fill="#999999" stroke="transparent" points="112,-139 0,-139 0,0 112,0 112,-139"/>
<text text-anchor="start" x="5" y="-126.5" font-family="Helvetica,sans-Serif" font-size="10.00">GrossMethod2Result</text>
<text text-anchor="start" x="21" y="-111.5" font-family="Helvetica,sans-Serif" font-size="10.00">+</text>
<text text-anchor="start" x="51" y="-111.5" font-family="Helvetica,sans-Serif" font-size="10.00">xGrs</text>
<text text-anchor="start" x="21" y="-96.5" font-family="Helvetica,sans-Serif" font-size="10.00">+</text>
<text text-anchor="start" x="51" y="-96.5" font-family="Helvetica,sans-Serif" font-size="10.00">Hv</text>
<text text-anchor="start" x="21" y="-81.5" font-family="Helvetica,sans-Serif" font-size="10.00">+</text>
<text text-anchor="start" x="51" y="-81.5" font-family="Helvetica,sans-Serif" font-size="10.00">Mm</text>
<text text-anchor="start" x="21" y="-66.5" font-family="Helvetica,sans-Serif" font-size="10.00">+</text>
<text text-anchor="start" x="51" y="-66.5" font-family="Helvetica,sans-Serif" font-size="10.00">HCH</text>
<text text-anchor="start" x="21" y="-51.5" font-family="Helvetica,sans-Serif" font-size="10.00">+</text>
<text text-anchor="start" x="51" y="-51.5" font-family="Helvetica,sans-Serif" font-size="10.00">HN</text>
<text text-anchor="start" x="21" y="-36.5" font-family="Helvetica,sans-Serif" font-size="10.00">+</text>
<text text-anchor="start" x="51" y="-36.5" font-family="Helvetica,sans-Serif" font-size="10.00">ierr</text>
<text text-anchor="start" x="21" y="-21.5" font-family="Helvetica,sans-Serif" font-size="10.00">+</text>
<text text-anchor="start" x="51" y="-21.5" font-family="Helvetica,sans-Serif" font-size="10.00">herr</text>
<text text-anchor="start" x="54" y="-6.5" font-family="Helvetica,sans-Serif" font-size="10.00"> </text>
<polygon fill="#666666" stroke="#666666" points="0,-121.5 0,-121.5 112,-121.5 112,-121.5 0,-121.5"/>
<polygon fill="#666666" stroke="#666666" points="0,-16.5 0,-16.5 49,-16.5 49,-16.5 0,-16.5"/>
<polygon fill="#666666" stroke="#666666" points="49,-16.5 49,-16.5 112,-16.5 112,-16.5 49,-16.5"/>
<polygon fill="none" stroke="#666666" points="0,0 0,-139 112,-139 112,0 0,0"/>
</a>
</g>
</g>
</g>
</svg>
