<?xml version="1.0" encoding="utf-8"?>
<!-- Generator: Adobe Illustrator 28.0.0, SVG Export Plug-In . SVG Version: 6.00 Build 0)  -->
<svg version="1.1" id="Calque_1" xmlns="http://www.w3.org/2000/svg" xmlns:xlink="http://www.w3.org/1999/xlink" x="0px" y="0px"
	 viewBox="0 0 1001.9 398.1" style="enable-background:new 0 0 1001.9 398.1;" xml:space="preserve">
<style type="text/css">
	.st0{fill:#CD1517;}
	.st1{fill:none;}
	.st2{fill:#268035;}
	.st3{fill:#D54A15;}
	.st4{fill:#C61261;}
	.st5{fill:#54256B;}
	.st6{fill:#9B2B7C;}
	.st7{fill:#99B91F;}
	.st8{fill:#EFAE00;}
	.st9{fill:#2A9086;}
	.st10{enable-background:new    ;}
	.st11{fill:#706F6F;}
</style>
<path class="st0" d="M120.4,190.6l70.2-70.2c4.7-4.7,12.3-4.7,17,0l70.2,70.2c4.7,4.7,4.7,12.3,0,17l-70.2,70.2
	c-4.7,4.7-12.3,4.7-17,0l-70.2-70.2C115.7,202.8,115.7,195.3,120.4,190.6z"/>
<path class="st1" d="M285.6,217.4c4.9-4.9,11.5-7.6,18.4-7.6V278c0,14.4-11.6,26-26,26l0,0h-68.2c0-6.9,2.7-13.5,7.6-18.3
	L285.6,217.4z"/>
<path class="st1" d="M217.4,112.5c-4.9-4.9-7.6-11.5-7.6-18.3H278c14.3,0,26,11.6,26,25.9v68.2c-6.9,0-13.5-2.7-18.3-7.6
	L217.4,112.5z"/>
<path class="st1" d="M180.7,285.6c4.9,4.9,7.6,11.5,7.6,18.4h-68.2c-14.3,0-25.9-11.7-25.9-26v-68.2c6.9,0,13.5,2.7,18.3,7.6
	L180.7,285.6z"/>
<path class="st1" d="M120.1,94.1h68.2c0,6.9-2.7,13.5-7.6,18.3l-68.2,68.2c-4.9,4.9-11.5,7.6-18.3,7.6v-68.2
	C94.2,105.8,105.8,94.2,120.1,94.1z"/>
<path class="st2" d="M304,278v-68.2c6.9,0,13.5,2.7,18.3,7.6l68.2,68.3c10.1,10.1,10.1,26.5,0,36.6l-68.2,68.2
	c-10.1,10.1-26.5,10.1-36.6,0l-68.2-68.2c-4.9-4.8-7.6-11.4-7.6-18.3H278C292.4,304,304,292.4,304,278L304,278z"/>
<path class="st3" d="M180.7,75.8c4.9,4.9,7.6,11.5,7.6,18.3h-68.2c-14.3,0-25.9,11.6-25.9,25.9v68.2c-6.9,0-13.5-2.7-18.3-7.6
	L7.6,112.5C-2.5,102.3-2.5,86,7.6,75.8L75.8,7.6c10.1-10.1,26.5-10.1,36.7,0L180.7,75.8z"/>
<path class="st4" d="M278,94.1h-68.2c0-6.9,2.7-13.5,7.6-18.3l68.2-68.2c10.1-10.1,26.5-10.1,36.6,0l68.2,68.2
	c10.1,10.1,10.1,26.5,0,36.7l-68.2,68.2c-4.8,4.8-11.4,7.6-18.3,7.6v-68.2C304,105.7,292.3,94.1,278,94.1z"/>
<path class="st5" d="M120.1,304h68.2c0,6.9-2.7,13.5-7.6,18.3l-68.2,68.2c-10.1,10.1-26.5,10.1-36.7,0L7.6,322.3
	c-10.1-10.1-10.1-26.5,0-36.6l68.2-68.3c4.9-4.9,11.5-7.6,18.3-7.6V278C94.1,292.3,105.7,304,120.1,304z"/>
<path class="st6" d="M180.7,285.6c4.9,4.9,7.6,11.5,7.6,18.4h-68.2c-14.3,0-25.9-11.7-25.9-26v-68.2c6.9,0,13.5,2.7,18.3,7.6
	L180.7,285.6z"/>
<path class="st7" d="M217.4,285.6l68.2-68.3c4.9-4.9,11.5-7.6,18.4-7.6V278c0,14.4-11.6,26-26,26l0,0h-68.2
	C209.8,297.1,212.5,290.5,217.4,285.6z"/>
<path class="st8" d="M112.5,180.7c-4.9,4.9-11.5,7.6-18.3,7.6v-68.2c0-14.3,11.6-25.9,25.9-25.9h68.2c0,6.9-2.7,13.5-7.6,18.3
	L112.5,180.7z"/>
<path class="st9" d="M304,120.1v68.2c-6.9,0-13.5-2.7-18.3-7.6l-68.2-68.2c-4.9-4.9-7.6-11.5-7.6-18.3H278
	C292.3,94.1,304,105.7,304,120.1z"/>
<g class="st10">
	<path class="st11" d="M421.8,223.2l29.8-2.6c1.8,8.9,5.4,15.5,10.9,19.7c5.5,4.2,12.9,6.3,22.2,6.3c9.9,0,17.3-1.9,22.3-5.6
		c5-3.7,7.5-8.1,7.5-13.1c0-3.2-1.1-5.9-3.2-8.2c-2.1-2.2-5.8-4.2-11-5.9c-3.6-1.1-11.8-3.1-24.5-5.9c-16.4-3.6-28-8.1-34.6-13.4
		c-9.3-7.5-14-16.5-14-27.3c0-6.9,2.2-13.4,6.6-19.4c4.4-6,10.7-10.6,18.9-13.7c8.2-3.1,18.2-4.7,29.9-4.7c19,0,33.4,3.7,43,11.2
		c9.6,7.5,14.7,17.4,15.2,29.9l-30.6,1.2c-1.3-7-4.1-12-8.4-15c-4.3-3.1-10.8-4.6-19.4-4.6c-8.9,0-15.9,1.6-20.9,4.9
		c-3.2,2.1-4.9,4.9-4.9,8.4c0,3.2,1.5,5.9,4.6,8.2c3.9,2.9,13.3,5.9,28.2,9.1c14.9,3.1,25.9,6.4,33.1,9.8
		c7.1,3.4,12.7,7.9,16.8,13.8c4,5.8,6.1,13,6.1,21.6c0,7.8-2.4,15-7.2,21.8c-4.8,6.8-11.7,11.8-20.5,15.1c-8.8,3.3-19.8,4.9-33,4.9
		c-19.2,0-33.9-4-44.2-11.9C429.9,249.9,423.8,238.3,421.8,223.2z"/>
	<path class="st11" d="M662.3,217.5l29.7,8.4c-4.6,14.8-12.1,25.8-22.7,32.9c-10.6,7.2-24,10.8-40.3,10.8
		c-20.2,0-36.7-6.1-49.7-18.4c-13-12.3-19.5-29.1-19.5-50.4c0-22.6,6.5-40.1,19.6-52.5c13-12.5,30.2-18.7,51.5-18.7
		c18.6,0,33.6,4.9,45.2,14.7c6.9,5.8,12.1,14.1,15.5,25l-30.3,6.5c-1.8-7-5.5-12.6-11.2-16.6c-5.7-4.1-12.6-6.1-20.8-6.1
		c-11.2,0-20.4,3.6-27.4,10.8c-7,7.2-10.5,18.9-10.5,35c0,17.1,3.5,29.3,10.4,36.6c6.9,7.3,15.9,10.9,26.9,10.9
		c8.1,0,15.1-2.3,21-6.9C655.6,234.6,659.8,227.4,662.3,217.5z"/>
	<path class="st11" d="M746.8,267.3V154.7h-45v-22.9h120.6v22.9h-44.9v112.6H746.8z"/>
	<path class="st11" d="M907,217.5v-22.8h66v54c-6.4,5.5-15.7,10.4-27.9,14.6c-12.2,4.2-24.5,6.3-37,6.3c-15.9,0-29.7-3-41.5-8.9
		c-11.8-5.9-20.7-14.4-26.6-25.5c-5.9-11.1-8.9-23.1-8.9-36.1c0-14.1,3.3-26.6,9.9-37.6c6.6-11,16.3-19.4,29.1-25.2
		c9.7-4.5,21.8-6.7,36.3-6.7c18.8,0,33.6,3.5,44.2,10.6c10.6,7.1,17.4,16.8,20.4,29.3l-30.4,5.1c-2.1-6.7-6.2-11.9-12.1-15.8
		c-5.9-3.9-13.3-5.8-22.1-5.8c-13.4,0-24,3.8-31.9,11.4c-7.9,7.6-11.9,18.8-11.9,33.7c0,16.1,4,28.1,12,36.2
		c8,8,18.5,12.1,31.5,12.1c6.4,0,12.9-1.1,19.3-3.4c6.5-2.2,12-5,16.6-8.2v-17.2H907z"/>
</g>
<g class="st10">
</g>
</svg>
